<svg xmlns="http://www.w3.org/2000/svg" width="420" height="160" viewBox="0 0 420 160">
  <rect x="0" y="0" width="420" height="160" rx="10" fill="#0b1120"/>
  <rect x="0" y="0" width="3" height="160" rx="1.5" fill="#14b8a6"/>
  <text x="20" y="28" font-family="'Courier New', monospace" font-size="10" fill="#14b8a6" font-weight="700" letter-spacing="2">MACHINE LEARNING &amp; AI</text>
  <line x1="20" y1="36" x2="400" y2="36" stroke="#14b8a6" stroke-width="0.5" opacity="0.4"/>

  <rect x="20" y="52" width="104" height="20" rx="3" fill="#134e4a" stroke="#14b8a6" stroke-width="0.8"/>
  <text x="72" y="65" text-anchor="middle" font-family="'Courier New', monospace" font-size="11" fill="#5eead4">scikit-learn</text>

  <rect x="132" y="52" width="69" height="20" rx="3" fill="#134e4a" stroke="#14b8a6" stroke-width="0.8"/>
  <text x="166.5" y="65" text-anchor="middle" font-family="'Courier New', monospace" font-size="11" fill="#5eead4">PyTorch</text>

  <rect x="209" y="52" width="90" height="20" rx="3" fill="#134e4a" stroke="#14b8a6" stroke-width="0.8"/>
  <text x="254" y="65" text-anchor="middle" font-family="'Courier New', monospace" font-size="11" fill="#5eead4">TensorFlow</text>

  <rect x="20" y="80" width="55" height="20" rx="3" fill="#134e4a" stroke="#14b8a6" stroke-width="0.8"/>
  <text x="47.5" y="93" text-anchor="middle" font-family="'Courier New', monospace" font-size="11" fill="#5eead4">Keras</text>

  <rect x="83" y="80" width="97" height="20" rx="3" fill="#134e4a" stroke="#14b8a6" stroke-width="0.8"/>
  <text x="131.5" y="93" text-anchor="middle" font-family="'Courier New', monospace" font-size="11" fill="#5eead4">HuggingFace</text>

  <rect x="188" y="80" width="69" height="20" rx="3" fill="#134e4a" stroke="#14b8a6" stroke-width="0.8"/>
  <text x="222.5" y="93" text-anchor="middle" font-family="'Courier New', monospace" font-size="11" fill="#5eead4">XGBoost</text>

  <rect x="20" y="108" width="76" height="20" rx="3" fill="#134e4a" stroke="#14b8a6" stroke-width="0.8"/>
  <text x="58" y="121" text-anchor="middle" font-family="'Courier New', monospace" font-size="11" fill="#5eead4">LightGBM</text>

  <rect x="104" y="108" width="90" height="20" rx="3" fill="#134e4a" stroke="#14b8a6" stroke-width="0.8"/>
  <text x="149" y="121" text-anchor="middle" font-family="'Courier New', monospace" font-size="11" fill="#5eead4">GeoPandas</text>

  <rect x="202" y="108" width="48" height="20" rx="3" fill="#134e4a" stroke="#14b8a6" stroke-width="0.8"/>
  <text x="226" y="121" text-anchor="middle" font-family="'Courier New', monospace" font-size="11" fill="#5eead4">SHAP</text>
</svg>
