<svg xmlns="http://www.w3.org/2000/svg" width="450" height="180" viewBox="0 0 450 180">
  <rect x="0" y="0" width="450" height="180" rx="18" fill="#0b1120"/>
  <rect x="0" y="0" width="3" height="180" rx="1.5" fill="#10b981"/>
  <text x="20" y="38" font-family="'Courier New', monospace" font-size="18" fill="#10b981" font-weight="700" letter-spacing="2">DATABASES &amp; TESTING</text>
  <line x1="20" y1="46" x2="430" y2="46" stroke="#10b981" stroke-width="0.5" opacity="0.4"/>

  <rect x="20" y="56" width="96" height="28" rx="4" fill="#064e3b" stroke="#10b981" stroke-width="0.8"/>
  <text x="68" y="76" text-anchor="middle" font-family="'Courier New', monospace" font-size="12" fill="#34d399">PostgreSQL</text>

  <rect x="124" y="56" width="68" height="28" rx="4" fill="#064e3b" stroke="#10b981" stroke-width="0.8"/>
  <text x="158" y="76" text-anchor="middle" font-family="'Courier New', monospace" font-size="12" fill="#34d399">SQLite</text>

  <rect x="200" y="56" width="60" height="28" rx="4" fill="#064e3b" stroke="#10b981" stroke-width="0.8"/>
  <text x="230" y="76" text-anchor="middle" font-family="'Courier New', monospace" font-size="12" fill="#34d399">MySQL</text>

  <rect x="20" y="92" width="68" height="28" rx="4" fill="#064e3b" stroke="#10b981" stroke-width="0.8"/>
  <text x="54" y="112" text-anchor="middle" font-family="'Courier New', monospace" font-size="12" fill="#34d399">Pytest</text>

  <rect x="96" y="92" width="82" height="28" rx="4" fill="#064e3b" stroke="#10b981" stroke-width="0.8"/>
  <text x="137" y="112" text-anchor="middle" font-family="'Courier New', monospace" font-size="12" fill="#34d399">Selenium</text>

  <rect x="186" y="92" width="132" height="28" rx="4" fill="#064e3b" stroke="#10b981" stroke-width="0.8"/>
  <text x="252" y="112" text-anchor="middle" font-family="'Courier New', monospace" font-size="12" fill="#34d399">Data Validation</text>
</svg>
