<svg xmlns="http://www.w3.org/2000/svg" width="240" height="204" viewBox="0 0 240 204">
  <rect x="0" y="0" width="240" height="204" rx="18" fill="#0b1120"/>
  <rect x="0" y="0" width="3" height="204" rx="1.5" fill="#14b8a6"/>
  <text x="16" y="38" font-family="'Courier New', monospace" font-size="18" fill="#14b8a6" font-weight="700" letter-spacing="2">MACHINE</text>
  <text x="16" y="56" font-family="'Courier New', monospace" font-size="18" fill="#14b8a6" font-weight="700" letter-spacing="2">LEARNING &amp; AI</text>
  <line x1="16" y1="66" x2="224" y2="66" stroke="#14b8a6" stroke-width="0.5" opacity="0.4"/>

  <rect x="16" y="76" width="108" height="20" rx="3" fill="#134e4a" stroke="#14b8a6" stroke-width="0.8"/>
  <text x="70" y="90" text-anchor="middle" font-family="'Courier New', monospace" font-size="12" fill="#5eead4">scikit-learn</text>

  <rect x="132" y="76" width="108" height="20" rx="3" fill="#134e4a" stroke="#14b8a6" stroke-width="0.8"/>
  <text x="186" y="90" text-anchor="middle" font-family="'Courier New', monospace" font-size="12" fill="#5eead4">PyTorch</text>

  <rect x="16" y="104" width="108" height="20" rx="3" fill="#134e4a" stroke="#14b8a6" stroke-width="0.8"/>
  <text x="70" y="118" text-anchor="middle" font-family="'Courier New', monospace" font-size="12" fill="#5eead4">TensorFlow</text>

  <rect x="132" y="104" width="108" height="20" rx="3" fill="#134e4a" stroke="#14b8a6" stroke-width="0.8"/>
  <text x="186" y="118" text-anchor="middle" font-family="'Courier New', monospace" font-size="12" fill="#5eead4">HuggingFace</text>

  <rect x="16" y="132" width="108" height="20" rx="3" fill="#134e4a" stroke="#14b8a6" stroke-width="0.8"/>
  <text x="70" y="146" text-anchor="middle" font-family="'Courier New', monospace" font-size="12" fill="#5eead4">XGBoost</text>

  <rect x="132" y="132" width="108" height="20" rx="3" fill="#134e4a" stroke="#14b8a6" stroke-width="0.8"/>
  <text x="186" y="146" text-anchor="middle" font-family="'Courier New', monospace" font-size="12" fill="#5eead4">LightGBM</text>

  <rect x="16" y="160" width="108" height="20" rx="3" fill="#134e4a" stroke="#14b8a6" stroke-width="0.8"/>
  <text x="70" y="174" text-anchor="middle" font-family="'Courier New', monospace" font-size="12" fill="#5eead4">SHAP</text>
</svg>
