<svg xmlns="http://www.w3.org/2000/svg" width="420" height="140" viewBox="0 0 420 140">
  <rect x="0" y="0" width="420" height="140" rx="10" fill="#0b1120"/>
  <rect x="0" y="0" width="3" height="140" rx="1.5" fill="#8b5cf6"/>
  <text x="20" y="28" font-family="'Courier New', monospace" font-size="10" fill="#8b5cf6" font-weight="700" letter-spacing="2">DISTRIBUTED SYSTEMS &amp; WEB3</text>
  <line x1="20" y1="36" x2="400" y2="36" stroke="#8b5cf6" stroke-width="0.5" opacity="0.4"/>
  <rect x="20" y="52" width="44" height="20" rx="3" fill="#2e1065" stroke="#8b5cf6" stroke-width="0.8"/>
  <text x="42" y="65" text-anchor="middle" font-family="'Courier New', monospace" font-size="11" fill="#a78bfa">Rust</text>
  <rect x="72" y="52" width="58" height="20" rx="3" fill="#2e1065" stroke="#8b5cf6" stroke-width="0.8"/>
  <text x="101" y="65" text-anchor="middle" font-family="'Courier New', monospace" font-size="11" fill="#a78bfa">Solana</text>
  <rect x="138" y="52" width="65" height="20" rx="3" fill="#2e1065" stroke="#8b5cf6" stroke-width="0.8"/>
  <text x="170.5" y="65" text-anchor="middle" font-family="'Courier New', monospace" font-size="11" fill="#a78bfa">Stellar</text>
  <rect x="211" y="52" width="65" height="20" rx="3" fill="#2e1065" stroke="#8b5cf6" stroke-width="0.8"/>
  <text x="243.5" y="65" text-anchor="middle" font-family="'Courier New', monospace" font-size="11" fill="#a78bfa">Soroban</text>
  <rect x="20" y="80" width="121" height="20" rx="3" fill="#2e1065" stroke="#8b5cf6" stroke-width="0.8"/>
  <text x="80.5" y="93" text-anchor="middle" font-family="'Courier New', monospace" font-size="11" fill="#a78bfa">Smart Contracts</text>
  <rect x="149" y="80" width="121" height="20" rx="3" fill="#2e1065" stroke="#8b5cf6" stroke-width="0.8"/>
  <text x="209.5" y="93" text-anchor="middle" font-family="'Courier New', monospace" font-size="11" fill="#a78bfa">Protocol Design</text>
</svg>
