<svg xmlns="http://www.w3.org/2000/svg" width="430" height="185" viewBox="0 0 430 185">
  <rect x="0" y="0" width="430" height="185" rx="10" fill="#0b1120"/>
  <rect x="0" y="0" width="430" height="3" rx="1.5" fill="#3b82f6"/>
  <text x="20" y="30" font-family="'Courier New', monospace" font-size="14" fill="#e2e8f0" font-weight="bold">GEOSPATIAL WATER QUALITY ML</text>
  <text x="20" y="48" font-family="'Courier New', monospace" font-size="10" fill="#3b82f6" letter-spacing="1">Data Science &amp; Machine Learning</text>
  <text x="20" y="72" font-family="'Courier New', monospace" font-size="11" fill="#94a3b8">Predicción de calidad de agua utilizando datos</text>
  <text x="20" y="88" font-family="'Courier New', monospace" font-size="11" fill="#94a3b8">satelitales y geoespaciales. Ensemble models + SHAP.</text>
  <rect x="20" y="110" width="58" height="20" rx="3" fill="#1e3a5f" stroke="#3b82f6" stroke-width="0.8"/>
  <text x="49" y="123" text-anchor="middle" font-family="'Courier New', monospace" font-size="11" fill="#60a5fa">Python</text>
  <rect x="86" y="110" width="79" height="20" rx="3" fill="#1e3a5f" stroke="#3b82f6" stroke-width="0.8"/>
  <text x="125.5" y="123" text-anchor="middle" font-family="'Courier New', monospace" font-size="11" fill="#60a5fa">GeoPandas</text>
  <rect x="173" y="110" width="65" height="20" rx="3" fill="#1e3a5f" stroke="#3b82f6" stroke-width="0.8"/>
  <text x="205.5" y="123" text-anchor="middle" font-family="'Courier New', monospace" font-size="11" fill="#60a5fa">LightGBM</text>
  <rect x="246" y="110" width="58" height="20" rx="3" fill="#1e3a5f" stroke="#3b82f6" stroke-width="0.8"/>
  <text x="275" y="123" text-anchor="middle" font-family="'Courier New', monospace" font-size="11" fill="#60a5fa">XGBoost</text>
  <rect x="312" y="110" width="72" height="20" rx="3" fill="#1e3a5f" stroke="#3b82f6" stroke-width="0.8"/>
  <text x="348" y="123" text-anchor="middle" font-family="'Courier New', monospace" font-size="11" fill="#60a5fa">CatBoost</text>
  <rect x="20" y="138" width="44" height="20" rx="3" fill="#1e3a5f" stroke="#3b82f6" stroke-width="0.8"/>
  <text x="42" y="151" text-anchor="middle" font-family="'Courier New', monospace" font-size="11" fill="#60a5fa">SHAP</text>
</svg>
