<svg xmlns="http://www.w3.org/2000/svg" width="420" height="140" viewBox="0 0 420 140">
  <rect x="0" y="0" width="420" height="140" rx="10" fill="#0b1120"/>
  <rect x="0" y="0" width="3" height="140" rx="1.5" fill="#10b981"/>
  <text x="20" y="28" font-family="'Courier New', monospace" font-size="10" fill="#10b981" font-weight="700" letter-spacing="2">DATABASES &amp; TESTING</text>
  <line x1="20" y1="36" x2="400" y2="36" stroke="#10b981" stroke-width="0.5" opacity="0.4"/>
  <rect x="20" y="52" width="51" height="20" rx="3" fill="#064e3b" stroke="#10b981" stroke-width="0.8"/>
  <text x="45.5" y="65" text-anchor="middle" font-family="'Courier New', monospace" font-size="11" fill="#34d399">MySQL</text>
  <rect x="79" y="52" width="86" height="20" rx="3" fill="#064e3b" stroke="#10b981" stroke-width="0.8"/>
  <text x="122" y="65" text-anchor="middle" font-family="'Courier New', monospace" font-size="11" fill="#34d399">PostgreSQL</text>
  <rect x="173" y="52" width="65" height="20" rx="3" fill="#064e3b" stroke="#10b981" stroke-width="0.8"/>
  <text x="205.5" y="65" text-anchor="middle" font-family="'Courier New', monospace" font-size="11" fill="#34d399">MongoDB</text>
  <rect x="20" y="80" width="72" height="20" rx="3" fill="#064e3b" stroke="#10b981" stroke-width="0.8"/>
  <text x="56" y="93" text-anchor="middle" font-family="'Courier New', monospace" font-size="11" fill="#34d399">Supabase</text>
  <rect x="100" y="80" width="65" height="20" rx="3" fill="#064e3b" stroke="#10b981" stroke-width="0.8"/>
  <text x="132.5" y="93" text-anchor="middle" font-family="'Courier New', monospace" font-size="11" fill="#34d399">Postman</text>
  <rect x="173" y="80" width="72" height="20" rx="3" fill="#064e3b" stroke="#10b981" stroke-width="0.8"/>
  <text x="209" y="93" text-anchor="middle" font-family="'Courier New', monospace" font-size="11" fill="#34d399">Selenium</text>
</svg>
