<svg xmlns="http://www.w3.org/2000/svg" width="420" height="140" viewBox="0 0 420 140">
  <rect x="0" y="0" width="420" height="140" rx="10" fill="#0b1120"/>
  <rect x="0" y="0" width="3" height="140" rx="1.5" fill="#6366f1"/>
  <text x="20" y="28" font-family="'Courier New', monospace" font-size="10" fill="#6366f1" font-weight="700" letter-spacing="2">BACKEND &amp; INFRASTRUCTURE</text>
  <line x1="20" y1="36" x2="400" y2="36" stroke="#6366f1" stroke-width="0.5" opacity="0.4"/>
  <rect x="20" y="52" width="86" height="20" rx="3" fill="#1e1b4b" stroke="#6366f1" stroke-width="0.8"/>
  <text x="63" y="65" text-anchor="middle" font-family="'Courier New', monospace" font-size="11" fill="#a5b4fc">TypeScript</text>
  <rect x="114" y="52" width="65" height="20" rx="3" fill="#1e1b4b" stroke="#6366f1" stroke-width="0.8"/>
  <text x="146.5" y="65" text-anchor="middle" font-family="'Courier New', monospace" font-size="11" fill="#a5b4fc">Node.js</text>
  <rect x="188" y="52" width="65" height="20" rx="3" fill="#1e1b4b" stroke="#6366f1" stroke-width="0.8"/>
  <text x="220.5" y="65" text-anchor="middle" font-family="'Courier New', monospace" font-size="11" fill="#a5b4fc">FastAPI</text>
  <rect x="262" y="52" width="65" height="20" rx="3" fill="#1e1b4b" stroke="#6366f1" stroke-width="0.8"/>
  <text x="294.5" y="65" text-anchor="middle" font-family="'Courier New', monospace" font-size="11" fill="#a5b4fc">Express</text>
  <rect x="20" y="80" width="58" height="20" rx="3" fill="#1e1b4b" stroke="#6366f1" stroke-width="0.8"/>
  <text x="49" y="93" text-anchor="middle" font-family="'Courier New', monospace" font-size="11" fill="#a5b4fc">Docker</text>
  <rect x="86" y="80" width="44" height="20" rx="3" fill="#1e1b4b" stroke="#6366f1" stroke-width="0.8"/>
  <text x="108" y="93" text-anchor="middle" font-family="'Courier New', monospace" font-size="11" fill="#a5b4fc">Java</text>
  <rect x="138" y="80" width="37" height="20" rx="3" fill="#1e1b4b" stroke="#6366f1" stroke-width="0.8"/>
  <text x="156.5" y="93" text-anchor="middle" font-family="'Courier New', monospace" font-size="11" fill="#a5b4fc">AWS</text>
  <rect x="183" y="80" width="51" height="20" rx="3" fill="#1e1b4b" stroke="#6366f1" stroke-width="0.8"/>
  <text x="208.5" y="93" text-anchor="middle" font-family="'Courier New', monospace" font-size="11" fill="#a5b4fc">Azure</text>
  <rect x="242" y="80" width="37" height="20" rx="3" fill="#1e1b4b" stroke="#6366f1" stroke-width="0.8"/>
  <text x="260.5" y="93" text-anchor="middle" font-family="'Courier New', monospace" font-size="11" fill="#a5b4fc">GCP</text>
</svg>
