<svg xmlns="http://www.w3.org/2000/svg" width="240" height="176" viewBox="0 0 240 176">
  <rect x="0" y="0" width="240" height="176" rx="18" fill="#0b1120"/>
  <rect x="0" y="0" width="3" height="176" rx="1.5" fill="#8b5cf6"/>
  <text x="16" y="38" font-family="'Courier New', monospace" font-size="18" fill="#8b5cf6" font-weight="700" letter-spacing="2">BLOCKCHAIN</text>
  <text x="16" y="56" font-family="'Courier New', monospace" font-size="18" fill="#8b5cf6" font-weight="700" letter-spacing="2">&amp; PROTOCOLS</text>
  <line x1="16" y1="66" x2="224" y2="66" stroke="#8b5cf6" stroke-width="0.5" opacity="0.4"/>

  <rect x="16" y="76" width="108" height="20" rx="3" fill="#2e1065" stroke="#8b5cf6" stroke-width="0.8"/>
  <text x="70" y="90" text-anchor="middle" font-family="'Courier New', monospace" font-size="12" fill="#a78bfa">Rust</text>

  <rect x="132" y="76" width="108" height="20" rx="3" fill="#2e1065" stroke="#8b5cf6" stroke-width="0.8"/>
  <text x="186" y="90" text-anchor="middle" font-family="'Courier New', monospace" font-size="12" fill="#a78bfa">Stellar</text>

  <rect x="16" y="104" width="108" height="20" rx="3" fill="#2e1065" stroke="#8b5cf6" stroke-width="0.8"/>
  <text x="70" y="118" text-anchor="middle" font-family="'Courier New', monospace" font-size="12" fill="#a78bfa">Soroban</text>

  <rect x="132" y="104" width="108" height="20" rx="3" fill="#2e1065" stroke="#8b5cf6" stroke-width="0.8"/>
  <text x="186" y="118" text-anchor="middle" font-family="'Courier New', monospace" font-size="12" fill="#a78bfa">Solana</text>

  <rect x="16" y="132" width="108" height="20" rx="3" fill="#2e1065" stroke="#8b5cf6" stroke-width="0.8"/>
  <text x="70" y="146" text-anchor="middle" font-family="'Courier New', monospace" font-size="12" fill="#a78bfa">Smart Contracts</text>

  <rect x="132" y="132" width="108" height="20" rx="3" fill="#2e1065" stroke="#8b5cf6" stroke-width="0.8"/>
  <text x="186" y="146" text-anchor="middle" font-family="'Courier New', monospace" font-size="12" fill="#a78bfa">Protocol Design</text>
</svg>
