<svg xmlns="http://www.w3.org/2000/svg" width="450" height="180" viewBox="0 0 450 180">
  <rect x="0" y="0" width="450" height="180" rx="18" fill="#0b1120"/>
  <rect x="0" y="0" width="3" height="180" rx="1.5" fill="#f59e0b"/>
  <text x="20" y="38" font-family="'Courier New', monospace" font-size="18" fill="#f59e0b" font-weight="700" letter-spacing="2">ANALYTICS &amp; BI</text>
  <line x1="20" y1="46" x2="430" y2="46" stroke="#f59e0b" stroke-width="0.5" opacity="0.4"/>

  <rect x="20" y="56" width="82" height="28" rx="4" fill="#451a03" stroke="#f59e0b" stroke-width="0.8"/>
  <text x="61" y="76" text-anchor="middle" font-family="'Courier New', monospace" font-size="12" fill="#fbbf24">Power BI</text>

  <rect x="110" y="56" width="110" height="28" rx="4" fill="#451a03" stroke="#f59e0b" stroke-width="0.8"/>
  <text x="165" y="76" text-anchor="middle" font-family="'Courier New', monospace" font-size="12" fill="#fbbf24">Looker Studio</text>

  <rect x="228" y="56" width="89" height="28" rx="4" fill="#451a03" stroke="#f59e0b" stroke-width="0.8"/>
  <text x="272.5" y="76" text-anchor="middle" font-family="'Courier New', monospace" font-size="12" fill="#fbbf24">ReportLab</text>

  <rect x="20" y="92" width="103" height="28" rx="4" fill="#451a03" stroke="#f59e0b" stroke-width="0.8"/>
  <text x="71.5" y="112" text-anchor="middle" font-family="'Courier New', monospace" font-size="12" fill="#fbbf24">Monte Carlo</text>

  <rect x="131" y="92" width="132" height="28" rx="4" fill="#451a03" stroke="#f59e0b" stroke-width="0.8"/>
  <text x="197" y="112" text-anchor="middle" font-family="'Courier New', monospace" font-size="12" fill="#fbbf24">Market Analytics</text>

  <rect x="271" y="92" width="118" height="28" rx="4" fill="#451a03" stroke="#f59e0b" stroke-width="0.8"/>
  <text x="330" y="112" text-anchor="middle" font-family="'Courier New', monospace" font-size="12" fill="#fbbf24">ESG Reporting</text>
</svg>
