<svg xmlns="http://www.w3.org/2000/svg" width="450" height="180" viewBox="0 0 450 180">
  <rect x="0" y="0" width="450" height="180" rx="18" fill="#0b1120"/>
  <rect x="0" y="0" width="3" height="180" rx="1.5" fill="#14b8a6"/>
  <text x="20" y="38" font-family="'Courier New', monospace" font-size="18" fill="#14b8a6" font-weight="700" letter-spacing="2">MACHINE LEARNING &amp; AI</text>
  <line x1="20" y1="46" x2="430" y2="46" stroke="#14b8a6" stroke-width="0.5" opacity="0.4"/>

  <rect x="20" y="56" width="110" height="28" rx="4" fill="#134e4a" stroke="#14b8a6" stroke-width="0.8"/>
  <text x="75" y="76" text-anchor="middle" font-family="'Courier New', monospace" font-size="12" fill="#5eead4">scikit-learn</text>

  <rect x="138" y="56" width="74" height="28" rx="4" fill="#134e4a" stroke="#14b8a6" stroke-width="0.8"/>
  <text x="175" y="76" text-anchor="middle" font-family="'Courier New', monospace" font-size="12" fill="#5eead4">XGBoost</text>

  <rect x="220" y="56" width="82" height="28" rx="4" fill="#134e4a" stroke="#14b8a6" stroke-width="0.8"/>
  <text x="261" y="76" text-anchor="middle" font-family="'Courier New', monospace" font-size="12" fill="#5eead4">LightGBM</text>

  <rect x="310" y="56" width="96" height="28" rx="4" fill="#134e4a" stroke="#14b8a6" stroke-width="0.8"/>
  <text x="358" y="76" text-anchor="middle" font-family="'Courier New', monospace" font-size="12" fill="#5eead4">TensorFlow</text>

  <rect x="20" y="92" width="68" height="28" rx="4" fill="#134e4a" stroke="#14b8a6" stroke-width="0.8"/>
  <text x="54" y="112" text-anchor="middle" font-family="'Courier New', monospace" font-size="12" fill="#5eead4">Optuna</text>

  <rect x="96" y="92" width="53" height="28" rx="4" fill="#134e4a" stroke="#14b8a6" stroke-width="0.8"/>
  <text x="122.5" y="112" text-anchor="middle" font-family="'Courier New', monospace" font-size="12" fill="#5eead4">SHAP</text>

  <rect x="157" y="92" width="139" height="28" rx="4" fill="#134e4a" stroke="#14b8a6" stroke-width="0.8"/>
  <text x="226.5" y="112" text-anchor="middle" font-family="'Courier New', monospace" font-size="12" fill="#5eead4">Model Evaluation</text>

  <rect x="304" y="92" width="103" height="28" rx="4" fill="#134e4a" stroke="#14b8a6" stroke-width="0.8"/>
  <text x="355.5" y="112" text-anchor="middle" font-family="'Courier New', monospace" font-size="12" fill="#5eead4">Forecasting</text>
</svg>
