<svg width="480" height="220" viewBox="0 0 480 220" xmlns="http://www.w3.org/2000/svg">
  <rect width="480" height="220" fill="#0b1120" rx="10"/>

  <!-- Donut wedges -->
    <path d="M 115.00 25.00 A 85 85 0 0 1 193.76 141.97 L 158.55 127.68 A 47 47 0 0 0 115.00 63.00 Z" fill="#38bdf8" stroke="#0b1120" stroke-width="2"/>  <path d="M 193.76 141.97 A 85 85 0 0 1 65.23 178.90 L 87.48 148.10 A 47 47 0 0 0 158.55 127.68 Z" fill="#34d399" stroke="#0b1120" stroke-width="2"/>  <path d="M 65.23 178.90 A 85 85 0 0 1 30.24 116.44 L 68.13 113.56 A 47 47 0 0 0 87.48 148.10 Z" fill="#a78bfa" stroke="#0b1120" stroke-width="2"/>  <path d="M 30.24 116.44 A 85 85 0 0 1 45.38 61.24 L 76.50 83.04 A 47 47 0 0 0 68.13 113.56 Z" fill="#fbbf24" stroke="#0b1120" stroke-width="2"/>  <path d="M 45.38 61.24 A 85 85 0 0 1 74.16 35.46 L 92.42 68.78 A 47 47 0 0 0 76.50 83.04 Z" fill="#f87171" stroke="#0b1120" stroke-width="2"/>  <path d="M 74.16 35.46 A 85 85 0 0 1 88.69 29.17 L 100.45 65.31 A 47 47 0 0 0 92.42 68.78 Z" fill="#2dd4bf" stroke="#0b1120" stroke-width="2"/>  <path d="M 88.69 29.17 A 85 85 0 0 1 95.47 27.27 L 104.20 64.26 A 47 47 0 0 0 100.45 65.31 Z" fill="#fb923c" stroke="#0b1120" stroke-width="2"/>  <path d="M 95.47 27.27 A 85 85 0 0 1 115.00 25.00 L 115.00 63.00 A 47 47 0 0 0 104.20 64.26 Z" fill="#e879f9" stroke="#0b1120" stroke-width="2"/>

  <!-- Hole fill -->
  <circle cx="115" cy="110" r="45" fill="#0b1120"/>

  <!-- Center text -->
  <text x="115" y="102"  font-family="monospace" font-size="20" font-weight="bold" fill="#60a5fa"  text-anchor="middle">35</text>
  <text x="115" y="124" font-family="monospace" font-size="10"                    fill="#94a3b8" text-anchor="middle">repos</text>

  <!-- Vertical divider -->
  <line x1="205" y1="18" x2="205" y2="202" stroke="#94a3b8" stroke-width="0.4" opacity="0.3"/>

  <!-- Legend -->
  
  <circle cx="226" cy="34.0" r="5" fill="#38bdf8"/>
  <text x="236" y="34.0" font-family="monospace" font-size="11" fill="#e2e8f0" dominant-baseline="middle">TypeScript</text>
  <text x="464"  y="34.0" font-family="monospace" font-size="11" fill="#60a5fa" font-weight="bold" text-anchor="end" dominant-baseline="middle">31.1%</text>
  <circle cx="226" cy="55.25" r="5" fill="#34d399"/>
  <text x="236" y="55.25" font-family="monospace" font-size="11" fill="#e2e8f0" dominant-baseline="middle">Python</text>
  <text x="464"  y="55.25" font-family="monospace" font-size="11" fill="#60a5fa" font-weight="bold" text-anchor="end" dominant-baseline="middle">28.8%</text>
  <circle cx="226" cy="76.5" r="5" fill="#a78bfa"/>
  <text x="236" y="76.5" font-family="monospace" font-size="11" fill="#e2e8f0" dominant-baseline="middle">Java</text>
  <text x="464"  y="76.5" font-family="monospace" font-size="11" fill="#60a5fa" font-weight="bold" text-anchor="end" dominant-baseline="middle">13.8%</text>
  <circle cx="226" cy="97.75" r="5" fill="#fbbf24"/>
  <text x="236" y="97.75" font-family="monospace" font-size="11" fill="#e2e8f0" dominant-baseline="middle">JavaScript</text>
  <text x="464"  y="97.75" font-family="monospace" font-size="11" fill="#60a5fa" font-weight="bold" text-anchor="end" dominant-baseline="middle">10.9%</text>
  <circle cx="226" cy="119.0" r="5" fill="#f87171"/>
  <text x="236" y="119.0" font-family="monospace" font-size="11" fill="#e2e8f0" dominant-baseline="middle">Rust</text>
  <text x="464"  y="119.0" font-family="monospace" font-size="11" fill="#60a5fa" font-weight="bold" text-anchor="end" dominant-baseline="middle">7.3%</text>
  <circle cx="226" cy="140.25" r="5" fill="#2dd4bf"/>
  <text x="236" y="140.25" font-family="monospace" font-size="11" fill="#e2e8f0" dominant-baseline="middle">EJS</text>
  <text x="464"  y="140.25" font-family="monospace" font-size="11" fill="#60a5fa" font-weight="bold" text-anchor="end" dominant-baseline="middle">3.0%</text>
  <circle cx="226" cy="161.5" r="5" fill="#fb923c"/>
  <text x="236" y="161.5" font-family="monospace" font-size="11" fill="#e2e8f0" dominant-baseline="middle">Pascal</text>
  <text x="464"  y="161.5" font-family="monospace" font-size="11" fill="#60a5fa" font-weight="bold" text-anchor="end" dominant-baseline="middle">1.3%</text>
  <circle cx="226" cy="182.75" r="5" fill="#e879f9"/>
  <text x="236" y="182.75" font-family="monospace" font-size="11" fill="#e2e8f0" dominant-baseline="middle">Other</text>
  <text x="464"  y="182.75" font-family="monospace" font-size="11" fill="#60a5fa" font-weight="bold" text-anchor="end" dominant-baseline="middle">3.7%</text>
</svg>