<svg width="480" height="250" viewBox="0 0 480 250" xmlns="http://www.w3.org/2000/svg">
  <rect width="480" height="250" fill="#0b1120" rx="10"/>
  <text x="22" y="28" font-family="monospace" font-size="13" font-weight="bold" fill="#60a5fa">Top Languages by Repo</text>
  <line x1="22" y1="40" x2="458" y2="40" stroke="#60a5fa" stroke-width="0.5" opacity="0.25"/>
  <path d="M 115.00 63.00 A 85 85 0 0 1 193.77 179.93 L 158.56 165.66 A 47 47 0 0 0 115.00 101.00 Z" fill="#38bdf8" stroke="#0b1120" stroke-width="2"/>
  <path d="M 193.77 179.93 A 85 85 0 0 1 65.19 216.87 L 87.46 186.08 A 47 47 0 0 0 158.56 165.66 Z" fill="#34d399" stroke="#0b1120" stroke-width="2"/>
  <path d="M 65.19 216.87 A 85 85 0 0 1 30.24 154.40 L 68.13 151.54 A 47 47 0 0 0 87.46 186.08 Z" fill="#a78bfa" stroke="#0b1120" stroke-width="2"/>
  <path d="M 30.24 154.40 A 85 85 0 0 1 45.39 99.22 L 76.51 121.03 A 47 47 0 0 0 68.13 151.54 Z" fill="#fbbf24" stroke="#0b1120" stroke-width="2"/>
  <path d="M 45.39 99.22 A 85 85 0 0 1 74.17 73.45 L 92.42 106.78 A 47 47 0 0 0 76.51 121.03 Z" fill="#f87171" stroke="#0b1120" stroke-width="2"/>
  <path d="M 74.17 73.45 A 85 85 0 0 1 88.70 67.17 L 100.46 103.31 A 47 47 0 0 0 92.42 106.78 Z" fill="#2dd4bf" stroke="#0b1120" stroke-width="2"/>
  <path d="M 88.70 67.17 A 85 85 0 0 1 95.48 65.27 L 104.20 102.26 A 47 47 0 0 0 100.46 103.31 Z" fill="#fb923c" stroke="#0b1120" stroke-width="2"/>
  <path d="M 95.48 65.27 A 85 85 0 0 1 115.00 63.00 L 115.00 101.00 A 47 47 0 0 0 104.20 102.26 Z" fill="#e879f9" stroke="#0b1120" stroke-width="2"/>
  <circle cx="115" cy="148" r="45" fill="#0b1120"/>
  <line x1="205" y1="48" x2="205" y2="234" stroke="#94a3b8" stroke-width="0.4" opacity="0.3"/>
  <circle cx="226" cy="64.0" r="5" fill="#38bdf8"/>
  <text x="236" y="64.0" font-family="monospace" font-size="11" fill="#e2e8f0" dominant-baseline="middle">TypeScript</text>
  <text x="464" y="64.0" font-family="monospace" font-size="11" fill="#60a5fa" font-weight="bold" text-anchor="end" dominant-baseline="middle">31.1%</text>
  <circle cx="226" cy="85.5" r="5" fill="#34d399"/>
  <text x="236" y="85.5" font-family="monospace" font-size="11" fill="#e2e8f0" dominant-baseline="middle">Python</text>
  <text x="464" y="85.5" font-family="monospace" font-size="11" fill="#60a5fa" font-weight="bold" text-anchor="end" dominant-baseline="middle">28.8%</text>
  <circle cx="226" cy="107.0" r="5" fill="#a78bfa"/>
  <text x="236" y="107.0" font-family="monospace" font-size="11" fill="#e2e8f0" dominant-baseline="middle">Java</text>
  <text x="464" y="107.0" font-family="monospace" font-size="11" fill="#60a5fa" font-weight="bold" text-anchor="end" dominant-baseline="middle">13.8%</text>
  <circle cx="226" cy="128.5" r="5" fill="#fbbf24"/>
  <text x="236" y="128.5" font-family="monospace" font-size="11" fill="#e2e8f0" dominant-baseline="middle">JavaScript</text>
  <text x="464" y="128.5" font-family="monospace" font-size="11" fill="#60a5fa" font-weight="bold" text-anchor="end" dominant-baseline="middle">10.9%</text>
  <circle cx="226" cy="150.0" r="5" fill="#f87171"/>
  <text x="236" y="150.0" font-family="monospace" font-size="11" fill="#e2e8f0" dominant-baseline="middle">Rust</text>
  <text x="464" y="150.0" font-family="monospace" font-size="11" fill="#60a5fa" font-weight="bold" text-anchor="end" dominant-baseline="middle">7.3%</text>
  <circle cx="226" cy="171.5" r="5" fill="#2dd4bf"/>
  <text x="236" y="171.5" font-family="monospace" font-size="11" fill="#e2e8f0" dominant-baseline="middle">EJS</text>
  <text x="464" y="171.5" font-family="monospace" font-size="11" fill="#60a5fa" font-weight="bold" text-anchor="end" dominant-baseline="middle">3.0%</text>
  <circle cx="226" cy="193.0" r="5" fill="#fb923c"/>
  <text x="236" y="193.0" font-family="monospace" font-size="11" fill="#e2e8f0" dominant-baseline="middle">Pascal</text>
  <text x="464" y="193.0" font-family="monospace" font-size="11" fill="#60a5fa" font-weight="bold" text-anchor="end" dominant-baseline="middle">1.3%</text>
  <circle cx="226" cy="214.5" r="5" fill="#e879f9"/>
  <text x="236" y="214.5" font-family="monospace" font-size="11" fill="#e2e8f0" dominant-baseline="middle">Other</text>
  <text x="464" y="214.5" font-family="monospace" font-size="11" fill="#60a5fa" font-weight="bold" text-anchor="end" dominant-baseline="middle">3.7%</text>
</svg>