<?xml version="1.0" encoding="utf-8" standalone="no"?>
<!DOCTYPE svg PUBLIC "-//W3C//DTD SVG 1.1//EN"
  "http://www.w3.org/Graphics/SVG/1.1/DTD/svg11.dtd">
<svg xmlns:xlink="http://www.w3.org/1999/xlink" width="349.2pt" height="236.16pt" viewBox="0 0 349.2 236.16" xmlns="http://www.w3.org/2000/svg" version="1.1">
 <metadata>
  <rdf:RDF xmlns:dc="http://purl.org/dc/elements/1.1/" xmlns:cc="http://creativecommons.org/ns#" xmlns:rdf="http://www.w3.org/1999/02/22-rdf-syntax-ns#">
   <cc:Work>
    <dc:type rdf:resource="http://purl.org/dc/dcmitype/StillImage"/>
    <dc:date>2026-07-01T21:28:30.903679</dc:date>
    <dc:format>image/svg+xml</dc:format>
    <dc:creator>
     <cc:Agent>
      <dc:title>Matplotlib v3.11.0, https://matplotlib.org/</dc:title>
     </cc:Agent>
    </dc:creator>
   </cc:Work>
  </rdf:RDF>
 </metadata>
 <defs>
  <style type="text/css">*{stroke-linejoin: round; stroke-linecap: butt}</style>
 </defs>
 <g id="figure_1">
  <g id="patch_1">
   <path d="M 0 236.16 
L 349.2 236.16 
L 349.2 0 
L 0 0 
z
" style="fill: #0b1120"/>
  </g>
  <g id="axes_1">
   <g id="FillBetweenPolyCollection_1">
    <defs>
     <path id="md408765ffa" d="M 1.755212 -194.307029 
L 1.755212 -41.852971 
L 154.20927 -41.852971 
L 154.20927 -194.307029 
L 154.20927 -194.307029 
L 1.755212 -194.307029 
z
" style="stroke: #121826"/>
    </defs>
    <g clip-path="url(#p722d8c654c)">
     <use xlink:href="#md408765ffa" x="0" y="236.16" style="fill: #121826; stroke: #121826"/>
    </g>
   </g>
   <g id="patch_2">
    <path d="M 52.51256 69.956547 
C 46.685402 73.040612 41.466567 77.157584 37.110635 82.106632 
C 32.754702 87.055681 29.333674 92.755002 27.01443 98.926577 
C 24.695186 105.098152 23.516062 111.639969 23.534578 118.232911 
C 23.553094 124.825853 24.768943 131.360944 27.122814 137.519395 
C 29.476686 143.677846 32.929672 149.357862 37.313333 154.282367 
C 41.696995 159.206871 46.938872 163.294465 52.783261 166.345752 
C 58.627649 169.397038 64.977946 171.361582 71.524377 172.143549 
C 78.070807 172.925517 84.705165 172.511984 91.103817 170.923123 
C 97.502468 169.334262 103.559651 166.596335 108.979887 162.842901 
C 114.400124 159.089467 119.093823 154.382568 122.832019 148.951812 
C 126.570216 143.521056 129.291121 137.456208 130.862006 131.053119 
C 132.432891 124.65003 132.827791 118.014538 132.027441 111.470329 
C 131.227091 104.926121 129.244721 98.581366 126.177033 92.74557 
C 123.109346 86.909773 119.007046 81.679396 114.07025 77.309582 
C 109.133455 72.939768 103.443763 69.502747 97.278726 67.16618 
C 91.113689 64.829613 84.575209 63.632122 77.982241 63.632122 
L 77.982241 88.133667 
C 81.608373 88.133667 85.204537 88.792287 88.595308 90.077399 
C 91.986078 91.362511 95.115408 93.252873 97.830646 95.65627 
C 100.545884 98.059668 102.802149 100.936375 104.489377 104.146063 
C 106.176605 107.355751 107.266909 110.845366 107.707101 114.444681 
C 108.147293 118.043996 107.930099 121.693517 107.066112 125.215216 
C 106.202125 128.736915 104.705627 132.072581 102.649619 135.059497 
C 100.593611 138.046413 98.012077 140.635207 95.030947 142.699596 
C 92.049816 144.763984 88.718366 146.269844 85.199108 147.143718 
C 81.679849 148.017591 78.030953 148.245035 74.430416 147.814952 
C 70.829879 147.38487 67.337216 146.304371 64.122802 144.626163 
C 60.908388 142.947956 58.025356 140.699779 55.614342 137.991302 
C 53.203328 135.282824 51.304186 132.158815 50.009556 128.771667 
C 48.714927 125.384519 48.04621 121.790219 48.036026 118.164101 
C 48.025843 114.537983 48.674361 110.939984 49.949945 107.545617 
C 51.225529 104.151251 53.107095 101.016625 55.502858 98.294648 
C 57.89862 95.572671 60.76898 93.308336 63.973917 91.612101 
z
" style="fill: #ff79c6; stroke: #0b1120; stroke-width: 2; stroke-linejoin: miter"/>
   </g>
   <g id="patch_3">
    <path d="M 65.410436 65.103391 
C 63.168952 65.635314 60.963485 66.308961 58.807337 67.120266 
C 56.651189 67.931572 54.548703 68.878904 52.51256 69.956547 
L 63.973917 91.612101 
C 65.093795 91.019397 66.250162 90.498365 67.436044 90.052147 
C 68.621925 89.605928 69.834932 89.235423 71.067748 88.942865 
z
" style="fill: #38bdf8; stroke: #0b1120; stroke-width: 2; stroke-linejoin: miter"/>
   </g>
   <g id="patch_4">
    <path d="M 77.982241 63.632122 
C 75.867263 63.632122 73.754081 63.755354 71.653439 64.00119 
C 69.552798 64.247027 67.468263 64.615051 65.410436 65.103391 
L 71.067748 88.942865 
C 72.199553 88.674278 73.346047 88.471865 74.5014 88.336655 
C 75.656753 88.201445 76.819003 88.133667 77.982241 88.133667 
z
" style="fill: #34d399; stroke: #0b1120; stroke-width: 2; stroke-linejoin: miter"/>
   </g>
   <g id="text_1">
    <!-- 35 -->
    <g style="fill: #60a5fa" transform="translate(67.145679 118.399951) scale(0.18 -0.18)">
     <defs>
      <path id="DejaVuSansMono-Bold-16" d="M 1716 2088 
L 1222 2088 
L 1222 2900 
L 1716 2900 
Q 2059 2900 2248 3036 
Q 2438 3172 2438 3419 
Q 2438 3678 2248 3823 
Q 2059 3969 1716 3969 
Q 1453 3969 1153 3903 
Q 853 3838 531 3713 
L 531 4550 
Q 853 4647 1165 4698 
Q 1478 4750 1766 4750 
Q 2503 4750 2915 4428 
Q 3328 4106 3328 3541 
Q 3328 3125 3090 2861 
Q 2853 2597 2413 2516 
Q 2913 2428 3175 2117 
Q 3438 1806 3438 1300 
Q 3438 622 3003 265 
Q 2569 -91 1741 -91 
Q 1388 -91 1045 -31 
Q 703 28 391 141 
L 391 997 
Q 684 850 1025 773 
Q 1366 697 1741 697 
Q 2116 697 2334 870 
Q 2553 1044 2553 1338 
Q 2553 1697 2334 1892 
Q 2116 2088 1716 2088 
z
" transform="scale(0.015625)"/>
      <path id="DejaVuSansMono-Bold-18" d="M 603 4666 
L 3138 4666 
L 3138 3853 
L 1350 3853 
L 1350 2988 
Q 1463 3031 1591 3051 
Q 1719 3072 1863 3072 
Q 2556 3072 2987 2634 
Q 3419 2197 3419 1497 
Q 3419 763 2951 336 
Q 2484 -91 1678 -91 
Q 1378 -91 1072 -41 
Q 766 9 447 109 
L 447 941 
Q 706 813 979 748 
Q 1253 684 1528 684 
Q 2016 684 2269 892 
Q 2522 1100 2522 1497 
Q 2522 1863 2270 2083 
Q 2019 2303 1600 2303 
Q 1353 2303 1104 2242 
Q 856 2181 603 2059 
L 603 4666 
z
" transform="scale(0.015625)"/>
     </defs>
     <use xlink:href="#DejaVuSansMono-Bold-16"/>
     <use xlink:href="#DejaVuSansMono-Bold-18" transform="translate(60.203125 0)"/>
    </g>
   </g>
   <g id="text_2">
    <!-- repos -->
    <g style="fill: #94a3b8" transform="translate(65.941616 126.69187) scale(0.08 -0.08)">
     <defs>
      <path id="DejaVuSansMono-55" d="M 3609 2778 
Q 3425 2922 3234 2987 
Q 3044 3053 2816 3053 
Q 2278 3053 1993 2715 
Q 1709 2378 1709 1741 
L 1709 0 
L 1131 0 
L 1131 3500 
L 1709 3500 
L 1709 2816 
Q 1853 3188 2151 3386 
Q 2450 3584 2859 3584 
Q 3072 3584 3256 3531 
Q 3441 3478 3609 3366 
L 3609 2778 
z
" transform="scale(0.015625)"/>
      <path id="DejaVuSansMono-48" d="M 3475 1894 
L 3475 1613 
L 984 1613 
L 984 1594 
Q 984 1022 1282 709 
Q 1581 397 2125 397 
Q 2400 397 2700 484 
Q 3000 572 3341 750 
L 3341 178 
Q 3013 44 2708 -23 
Q 2403 -91 2119 -91 
Q 1303 -91 843 398 
Q 384 888 384 1747 
Q 384 2584 834 3084 
Q 1284 3584 2034 3584 
Q 2703 3584 3089 3131 
Q 3475 2678 3475 1894 
z
M 2900 2063 
Q 2888 2569 2661 2833 
Q 2434 3097 2009 3097 
Q 1594 3097 1325 2822 
Q 1056 2547 1006 2059 
L 2900 2063 
z
" transform="scale(0.015625)"/>
      <path id="DejaVuSansMono-53" d="M 1172 441 
L 1172 -1331 
L 594 -1331 
L 594 3500 
L 1172 3500 
L 1172 3053 
Q 1316 3313 1555 3448 
Q 1794 3584 2106 3584 
Q 2741 3584 3102 3093 
Q 3463 2603 3463 1734 
Q 3463 881 3100 395 
Q 2738 -91 2106 -91 
Q 1788 -91 1548 45 
Q 1309 181 1172 441 
z
M 2859 1747 
Q 2859 2416 2648 2756 
Q 2438 3097 2022 3097 
Q 1603 3097 1387 2755 
Q 1172 2413 1172 1747 
Q 1172 1084 1387 740 
Q 1603 397 2022 397 
Q 2438 397 2648 737 
Q 2859 1078 2859 1747 
z
" transform="scale(0.015625)"/>
      <path id="DejaVuSansMono-52" d="M 1925 3097 
Q 1488 3097 1263 2756 
Q 1038 2416 1038 1747 
Q 1038 1081 1263 739 
Q 1488 397 1925 397 
Q 2366 397 2591 739 
Q 2816 1081 2816 1747 
Q 2816 2416 2591 2756 
Q 2366 3097 1925 3097 
z
M 1925 3584 
Q 2653 3584 3039 3112 
Q 3425 2641 3425 1747 
Q 3425 850 3040 379 
Q 2656 -91 1925 -91 
Q 1197 -91 812 379 
Q 428 850 428 1747 
Q 428 2641 812 3112 
Q 1197 3584 1925 3584 
z
" transform="scale(0.015625)"/>
      <path id="DejaVuSansMono-56" d="M 3041 3378 
L 3041 2816 
Q 2794 2959 2544 3031 
Q 2294 3103 2034 3103 
Q 1644 3103 1451 2976 
Q 1259 2850 1259 2591 
Q 1259 2356 1403 2240 
Q 1547 2125 2119 2016 
L 2350 1972 
Q 2778 1891 2998 1647 
Q 3219 1403 3219 1013 
Q 3219 494 2850 201 
Q 2481 -91 1825 -91 
Q 1566 -91 1281 -36 
Q 997 19 666 128 
L 666 722 
Q 988 556 1281 473 
Q 1575 391 1838 391 
Q 2219 391 2428 545 
Q 2638 700 2638 978 
Q 2638 1378 1872 1531 
L 1847 1538 
L 1631 1581 
Q 1134 1678 906 1908 
Q 678 2138 678 2534 
Q 678 3038 1018 3311 
Q 1359 3584 1991 3584 
Q 2272 3584 2531 3532 
Q 2791 3481 3041 3378 
z
" transform="scale(0.015625)"/>
     </defs>
     <use xlink:href="#DejaVuSansMono-55"/>
     <use xlink:href="#DejaVuSansMono-48" transform="translate(60.203125 0)"/>
     <use xlink:href="#DejaVuSansMono-53" transform="translate(120.40625 0)"/>
     <use xlink:href="#DejaVuSansMono-52" transform="translate(180.609375 0)"/>
     <use xlink:href="#DejaVuSansMono-56" transform="translate(240.8125 0)"/>
    </g>
   </g>
  </g>
  <g id="axes_2">
   <g id="patch_5">
    <path d="M 179.200846 228.96 
L 342 228.96 
L 342 7.2 
L 179.200846 7.2 
z
" style="fill: #121826"/>
   </g>
   <g id="FillBetweenPolyCollection_2">
    <defs>
     <path id="maae31128e5" d="M 179.200846 -228.96 
L 179.200846 -7.2 
L 342 -7.2 
L 342 -228.96 
L 342 -228.96 
L 179.200846 -228.96 
z
" style="stroke: #121826"/>
    </defs>
    <g clip-path="url(#p2c478b8473)">
     <use xlink:href="#maae31128e5" x="0" y="236.16" style="fill: #121826; stroke: #121826"/>
    </g>
   </g>
   <g id="PathCollection_1">
    <path d="M 195.480761 37.165302 
C 196.370279 37.165302 197.223485 36.811893 197.852469 36.182908 
C 198.481454 35.553924 198.834863 34.700718 198.834863 33.8112 
C 198.834863 32.921682 198.481454 32.068476 197.852469 31.439492 
C 197.223485 30.810507 196.370279 30.457098 195.480761 30.457098 
C 194.591243 30.457098 193.738037 30.810507 193.109053 31.439492 
C 192.480068 32.068476 192.126659 32.921682 192.126659 33.8112 
C 192.126659 34.700718 192.480068 35.553924 193.109053 36.182908 
C 193.738037 36.811893 194.591243 37.165302 195.480761 37.165302 
z
" clip-path="url(#p2c478b8473)" style="fill: #ff79c6"/>
   </g>
   <g id="PathCollection_2">
    <path d="M 195.480761 93.344502 
C 196.370279 93.344502 197.223485 92.991093 197.852469 92.362108 
C 198.481454 91.733124 198.834863 90.879918 198.834863 89.9904 
C 198.834863 89.100882 198.481454 88.247676 197.852469 87.618692 
C 197.223485 86.989707 196.370279 86.636298 195.480761 86.636298 
C 194.591243 86.636298 193.738037 86.989707 193.109053 87.618692 
C 192.480068 88.247676 192.126659 89.100882 192.126659 89.9904 
C 192.126659 90.879918 192.480068 91.733124 193.109053 92.362108 
C 193.738037 92.991093 194.591243 93.344502 195.480761 93.344502 
z
" clip-path="url(#p2c478b8473)" style="fill: #38bdf8"/>
   </g>
   <g id="PathCollection_3">
    <path d="M 195.480761 149.523702 
C 196.370279 149.523702 197.223485 149.170293 197.852469 148.541308 
C 198.481454 147.912324 198.834863 147.059118 198.834863 146.1696 
C 198.834863 145.280082 198.481454 144.426876 197.852469 143.797892 
C 197.223485 143.168907 196.370279 142.815498 195.480761 142.815498 
C 194.591243 142.815498 193.738037 143.168907 193.109053 143.797892 
C 192.480068 144.426876 192.126659 145.280082 192.126659 146.1696 
C 192.126659 147.059118 192.480068 147.912324 193.109053 148.541308 
C 193.738037 149.170293 194.591243 149.523702 195.480761 149.523702 
z
" clip-path="url(#p2c478b8473)" style="fill: #34d399"/>
   </g>
   <g id="text_3">
    <!-- Jupyter Notebook -->
    <g style="fill: #e2e8f0" transform="translate(211.760677 35.889637) scale(0.08 -0.08)">
     <defs>
      <path id="DejaVuSansMono-2d" d="M 341 191 
L 341 928 
Q 625 675 928 548 
Q 1231 422 1556 422 
Q 2003 422 2179 655 
Q 2356 888 2356 1522 
L 2356 4134 
L 1166 4134 
L 1166 4666 
L 2988 4666 
L 2988 1522 
Q 2988 641 2658 275 
Q 2328 -91 1556 -91 
Q 1256 -91 959 -22 
Q 663 47 341 191 
z
" transform="scale(0.015625)"/>
      <path id="DejaVuSansMono-58" d="M 609 1325 
L 609 3494 
L 1184 3494 
L 1184 1325 
Q 1184 853 1351 631 
Q 1519 409 1869 409 
Q 2275 409 2490 695 
Q 2706 981 2706 1516 
L 2706 3494 
L 3284 3494 
L 3284 0 
L 2706 0 
L 2706 525 
Q 2553 222 2289 65 
Q 2025 -91 1672 -91 
Q 1134 -91 871 261 
Q 609 613 609 1325 
z
" transform="scale(0.015625)"/>
      <path id="DejaVuSansMono-5c" d="M 2681 1125 
Q 2538 759 2316 163 
Q 2006 -663 1900 -844 
Q 1756 -1088 1540 -1209 
Q 1325 -1331 1038 -1331 
L 575 -1331 
L 575 -850 
L 916 -850 
Q 1169 -850 1312 -703 
Q 1456 -556 1678 56 
L 325 3500 
L 934 3500 
L 1972 763 
L 2994 3500 
L 3603 3500 
L 2681 1125 
z
" transform="scale(0.015625)"/>
      <path id="DejaVuSansMono-57" d="M 1919 4494 
L 1919 3500 
L 3225 3500 
L 3225 3053 
L 1919 3053 
L 1919 1153 
Q 1919 766 2066 612 
Q 2213 459 2578 459 
L 3225 459 
L 3225 0 
L 2522 0 
Q 1875 0 1609 259 
Q 1344 519 1344 1153 
L 1344 3053 
L 409 3053 
L 409 3500 
L 1344 3500 
L 1344 4494 
L 1919 4494 
z
" transform="scale(0.015625)"/>
      <path id="DejaVuSansMono-3" transform="scale(0.015625)"/>
      <path id="DejaVuSansMono-31" d="M 434 4666 
L 1234 4666 
L 2809 825 
L 2809 4666 
L 3419 4666 
L 3419 0 
L 2619 0 
L 1044 3841 
L 1044 0 
L 434 0 
L 434 4666 
z
" transform="scale(0.015625)"/>
      <path id="DejaVuSansMono-45" d="M 2869 1747 
Q 2869 2416 2656 2756 
Q 2444 3097 2028 3097 
Q 1609 3097 1393 2755 
Q 1178 2413 1178 1747 
Q 1178 1084 1393 740 
Q 1609 397 2028 397 
Q 2444 397 2656 737 
Q 2869 1078 2869 1747 
z
M 1178 3053 
Q 1316 3309 1558 3446 
Q 1800 3584 2119 3584 
Q 2750 3584 3112 3098 
Q 3475 2613 3475 1759 
Q 3475 894 3111 401 
Q 2747 -91 2113 -91 
Q 1800 -91 1561 45 
Q 1322 181 1178 441 
L 1178 0 
L 603 0 
L 603 4863 
L 1178 4863 
L 1178 3053 
z
" transform="scale(0.015625)"/>
      <path id="DejaVuSansMono-4e" d="M 738 4863 
L 1331 4863 
L 1331 2047 
L 2841 3500 
L 3541 3500 
L 2163 2181 
L 3756 0 
L 3053 0 
L 1759 1806 
L 1331 1403 
L 1331 0 
L 738 0 
L 738 4863 
z
" transform="scale(0.015625)"/>
     </defs>
     <use xlink:href="#DejaVuSansMono-2d"/>
     <use xlink:href="#DejaVuSansMono-58" transform="translate(60.203125 0)"/>
     <use xlink:href="#DejaVuSansMono-53" transform="translate(120.40625 0)"/>
     <use xlink:href="#DejaVuSansMono-5c" transform="translate(180.609375 0)"/>
     <use xlink:href="#DejaVuSansMono-57" transform="translate(240.8125 0)"/>
     <use xlink:href="#DejaVuSansMono-48" transform="translate(301.015625 0)"/>
     <use xlink:href="#DejaVuSansMono-55" transform="translate(361.21875 0)"/>
     <use xlink:href="#DejaVuSansMono-3" transform="translate(421.421875 0)"/>
     <use xlink:href="#DejaVuSansMono-31" transform="translate(481.625 0)"/>
     <use xlink:href="#DejaVuSansMono-52" transform="translate(541.828125 0)"/>
     <use xlink:href="#DejaVuSansMono-57" transform="translate(602.03125 0)"/>
     <use xlink:href="#DejaVuSansMono-48" transform="translate(662.234375 0)"/>
     <use xlink:href="#DejaVuSansMono-45" transform="translate(722.4375 0)"/>
     <use xlink:href="#DejaVuSansMono-52" transform="translate(782.640625 0)"/>
     <use xlink:href="#DejaVuSansMono-52" transform="translate(842.84375 0)"/>
     <use xlink:href="#DejaVuSansMono-4e" transform="translate(903.046875 0)"/>
    </g>
   </g>
   <g id="text_4">
    <!-- 92.3% -->
    <g style="fill: #60a5fa" transform="translate(301.638835 35.889325) scale(0.08 -0.08)">
     <defs>
      <path id="DejaVuSansMono-Bold-1c" d="M 634 63 
L 634 903 
Q 881 759 1107 690 
Q 1334 622 1544 622 
Q 2041 622 2302 955 
Q 2563 1288 2578 1950 
Q 2431 1747 2203 1645 
Q 1975 1544 1663 1544 
Q 1034 1544 690 1942 
Q 347 2341 347 3072 
Q 347 3853 731 4281 
Q 1116 4709 1819 4709 
Q 2672 4709 3058 4139 
Q 3444 3569 3444 2297 
Q 3444 1088 2972 483 
Q 2500 -122 1556 -122 
Q 1338 -122 1105 -75 
Q 872 -28 634 63 
z
M 1844 2316 
Q 2141 2316 2298 2533 
Q 2456 2750 2456 3163 
Q 2456 3572 2298 3789 
Q 2141 4006 1844 4006 
Q 1544 4006 1383 3789 
Q 1222 3572 1222 3163 
Q 1222 2753 1383 2534 
Q 1544 2316 1844 2316 
z
" transform="scale(0.015625)"/>
      <path id="DejaVuSansMono-Bold-15" d="M 1356 813 
L 3322 813 
L 3322 0 
L 359 0 
L 359 788 
L 859 1319 
Q 1750 2266 1941 2484 
Q 2175 2753 2278 2961 
Q 2381 3169 2381 3372 
Q 2381 3684 2192 3854 
Q 2003 4025 1656 4025 
Q 1409 4025 1101 3926 
Q 794 3828 459 3641 
L 459 4500 
Q 794 4622 1114 4686 
Q 1434 4750 1728 4750 
Q 2469 4750 2892 4404 
Q 3316 4059 3316 3463 
Q 3316 3188 3223 2947 
Q 3131 2706 2906 2413 
Q 2741 2200 1997 1456 
Q 1594 1053 1356 813 
z
" transform="scale(0.015625)"/>
      <path id="DejaVuSansMono-Bold-11" d="M 1403 1147 
L 2444 1147 
L 2444 0 
L 1403 0 
L 1403 1147 
z
" transform="scale(0.015625)"/>
      <path id="DejaVuSansMono-Bold-8" d="M 103 3475 
Q 103 3894 393 4184 
Q 684 4475 1100 4475 
Q 1516 4475 1808 4183 
Q 2100 3891 2100 3475 
Q 2100 3059 1808 2768 
Q 1516 2478 1100 2478 
Q 684 2478 393 2767 
Q 103 3056 103 3475 
z
M 1100 3903 
Q 922 3903 797 3779 
Q 672 3656 672 3475 
Q 672 3294 797 3170 
Q 922 3047 1100 3047 
Q 1281 3047 1404 3170 
Q 1528 3294 1528 3475 
Q 1528 3653 1403 3778 
Q 1278 3903 1100 3903 
z
M 269 1753 
L 3525 3059 
L 3653 2759 
L 378 1453 
L 269 1753 
z
M 1813 997 
Q 1813 1416 2102 1706 
Q 2391 1997 2809 1997 
Q 3222 1997 3515 1705 
Q 3809 1413 3809 997 
Q 3809 584 3515 292 
Q 3222 0 2809 0 
Q 2391 0 2102 289 
Q 1813 578 1813 997 
z
M 2803 1428 
Q 2628 1428 2504 1303 
Q 2381 1178 2381 997 
Q 2381 816 2503 692 
Q 2625 569 2803 569 
Q 2984 569 3111 694 
Q 3238 819 3238 997 
Q 3238 1175 3109 1301 
Q 2981 1428 2803 1428 
z
" transform="scale(0.015625)"/>
     </defs>
     <use xlink:href="#DejaVuSansMono-Bold-1c"/>
     <use xlink:href="#DejaVuSansMono-Bold-15" transform="translate(60.203125 0)"/>
     <use xlink:href="#DejaVuSansMono-Bold-11" transform="translate(120.40625 0)"/>
     <use xlink:href="#DejaVuSansMono-Bold-16" transform="translate(180.609375 0)"/>
     <use xlink:href="#DejaVuSansMono-Bold-8" transform="translate(240.8125 0)"/>
    </g>
   </g>
   <g id="text_5">
    <!-- HTML -->
    <g style="fill: #e2e8f0" transform="translate(211.760677 92.068525) scale(0.08 -0.08)">
     <defs>
      <path id="DejaVuSansMono-2b" d="M 428 4666 
L 1063 4666 
L 1063 2753 
L 2791 2753 
L 2791 4666 
L 3425 4666 
L 3425 0 
L 2791 0 
L 2791 2222 
L 1063 2222 
L 1063 0 
L 428 0 
L 428 4666 
z
" transform="scale(0.015625)"/>
      <path id="DejaVuSansMono-37" d="M 147 4666 
L 3706 4666 
L 3706 4134 
L 2247 4134 
L 2247 0 
L 1613 0 
L 1613 4134 
L 147 4134 
L 147 4666 
z
" transform="scale(0.015625)"/>
      <path id="DejaVuSansMono-30" d="M 269 4666 
L 1113 4666 
L 1919 2291 
L 2731 4666 
L 3578 4666 
L 3578 0 
L 2994 0 
L 2994 4122 
L 2163 1663 
L 1684 1663 
L 850 4122 
L 850 0 
L 269 0 
L 269 4666 
z
" transform="scale(0.015625)"/>
      <path id="DejaVuSansMono-2f" d="M 672 4666 
L 1306 4666 
L 1306 531 
L 3559 531 
L 3559 0 
L 672 0 
L 672 4666 
z
" transform="scale(0.015625)"/>
     </defs>
     <use xlink:href="#DejaVuSansMono-2b"/>
     <use xlink:href="#DejaVuSansMono-37" transform="translate(60.203125 0)"/>
     <use xlink:href="#DejaVuSansMono-30" transform="translate(120.40625 0)"/>
     <use xlink:href="#DejaVuSansMono-2f" transform="translate(180.609375 0)"/>
    </g>
   </g>
   <g id="text_6">
    <!-- 4.0% -->
    <g style="fill: #60a5fa" transform="translate(306.455085 92.068525) scale(0.08 -0.08)">
     <defs>
      <path id="DejaVuSansMono-Bold-17" d="M 2169 3641 
L 991 1797 
L 2169 1797 
L 2169 3641 
z
M 2088 4666 
L 3053 4666 
L 3053 1797 
L 3566 1797 
L 3566 1006 
L 3053 1006 
L 3053 0 
L 2169 0 
L 2169 1006 
L 319 1006 
L 319 1900 
L 2088 4666 
z
" transform="scale(0.015625)"/>
      <path id="DejaVuSansMono-Bold-13" d="M 1538 2328 
Q 1538 2494 1650 2606 
Q 1763 2719 1925 2719 
Q 2091 2719 2203 2606 
Q 2316 2494 2316 2328 
Q 2316 2166 2203 2053 
Q 2091 1941 1925 1941 
Q 1763 1941 1650 2052 
Q 1538 2163 1538 2328 
z
M 1925 3969 
Q 1606 3969 1459 3578 
Q 1313 3188 1313 2328 
Q 1313 1472 1459 1081 
Q 1606 691 1925 691 
Q 2247 691 2394 1081 
Q 2541 1472 2541 2328 
Q 2541 3188 2394 3578 
Q 2247 3969 1925 3969 
z
M 384 2328 
Q 384 3541 768 4145 
Q 1153 4750 1925 4750 
Q 2700 4750 3084 4147 
Q 3469 3544 3469 2328 
Q 3469 1116 3084 512 
Q 2700 -91 1925 -91 
Q 1153 -91 768 514 
Q 384 1119 384 2328 
z
" transform="scale(0.015625)"/>
     </defs>
     <use xlink:href="#DejaVuSansMono-Bold-17"/>
     <use xlink:href="#DejaVuSansMono-Bold-11" transform="translate(60.203125 0)"/>
     <use xlink:href="#DejaVuSansMono-Bold-13" transform="translate(120.40625 0)"/>
     <use xlink:href="#DejaVuSansMono-Bold-8" transform="translate(180.609375 0)"/>
    </g>
   </g>
   <g id="text_7">
    <!-- Other -->
    <g style="fill: #e2e8f0" transform="translate(211.760677 148.248038) scale(0.08 -0.08)">
     <defs>
      <path id="DejaVuSansMono-32" d="M 2828 2328 
Q 2828 3356 2617 3797 
Q 2406 4238 1925 4238 
Q 1447 4238 1236 3797 
Q 1025 3356 1025 2328 
Q 1025 1303 1236 862 
Q 1447 422 1925 422 
Q 2406 422 2617 861 
Q 2828 1300 2828 2328 
z
M 3488 2328 
Q 3488 1109 3102 509 
Q 2716 -91 1925 -91 
Q 1134 -91 750 506 
Q 366 1103 366 2328 
Q 366 3550 752 4150 
Q 1138 4750 1925 4750 
Q 2716 4750 3102 4150 
Q 3488 3550 3488 2328 
z
" transform="scale(0.015625)"/>
      <path id="DejaVuSansMono-4b" d="M 3284 2169 
L 3284 0 
L 2706 0 
L 2706 2169 
Q 2706 2641 2540 2862 
Q 2375 3084 2022 3084 
Q 1619 3084 1401 2798 
Q 1184 2513 1184 1978 
L 1184 0 
L 609 0 
L 609 4863 
L 1184 4863 
L 1184 2975 
Q 1338 3275 1600 3429 
Q 1863 3584 2222 3584 
Q 2756 3584 3020 3232 
Q 3284 2881 3284 2169 
z
" transform="scale(0.015625)"/>
     </defs>
     <use xlink:href="#DejaVuSansMono-32"/>
     <use xlink:href="#DejaVuSansMono-57" transform="translate(60.203125 0)"/>
     <use xlink:href="#DejaVuSansMono-4b" transform="translate(120.40625 0)"/>
     <use xlink:href="#DejaVuSansMono-48" transform="translate(180.609375 0)"/>
     <use xlink:href="#DejaVuSansMono-55" transform="translate(240.8125 0)"/>
    </g>
   </g>
   <g id="text_8">
    <!-- 3.7% -->
    <g style="fill: #60a5fa" transform="translate(306.455085 148.247725) scale(0.08 -0.08)">
     <defs>
      <path id="DejaVuSansMono-Bold-1a" d="M 422 4666 
L 3372 4666 
L 3372 4013 
L 1791 0 
L 850 0 
L 2369 3853 
L 422 3853 
L 422 4666 
z
" transform="scale(0.015625)"/>
     </defs>
     <use xlink:href="#DejaVuSansMono-Bold-16"/>
     <use xlink:href="#DejaVuSansMono-Bold-11" transform="translate(60.203125 0)"/>
     <use xlink:href="#DejaVuSansMono-Bold-1a" transform="translate(120.40625 0)"/>
     <use xlink:href="#DejaVuSansMono-Bold-8" transform="translate(180.609375 0)"/>
    </g>
   </g>
  </g>
 </g>
 <defs>
  <clipPath id="p722d8c654c">
   <rect x="7.2" y="47.297759" width="141.564482" height="141.564482"/>
  </clipPath>
  <clipPath id="p2c478b8473">
   <rect x="179.200846" y="7.2" width="162.799154" height="221.76"/>
  </clipPath>
 </defs>
</svg>
